<svg xmlns="http://www.w3.org/2000/svg" viewBox="0 0 64 64"><path d="M4 16v4h4v-4H4zm0 8v4h4v-4H4zm8-4H8v4h4v-4zm4-4h-4v4h4v-4zm0 8h-4v4h4v-4zm-4 4H8v4h4v-4zm-8 4v4h4v-4H4zm4 4v4h4v-4H8zm4-4v4h4v-4h-4zm0 8v4h4v-4h-4zm-4 8h4v-4H8v4zm8 0h4v-4h-4v4zm0-12v4h4v-4h-4zm0-8v4h4v-4h-4zm4-4v-4h-4v4h4zm4-8h-4v4h4v-4zm0 12v-4h-4v4h4zm-4 4v4h4v-4h-4zm0 8v4h4v-4h-4zm4 8h4v-4h-4v4zm0-12v4h4v-4h-4zm4-4v-4h-4v4h4zm0-8v-4h-4v4h4zm4-8h-4v4h4v-4zm0 12v-4h-4v4h4zm-4 8h4v-4h-4v4zm0 4v4h4v-4h-4zm4 8h4v-4h-4v4zm0-8h4v-4h-4v4zm0-8h4v-4h-4v4zm4-8v-4h-4v4h4zm4-8h-4v4h4v-4zm-4 12h4v-4h-4v4zm0 8h4v-4h-4v4zm0 8h4v-4h-4v4zm8 4v-4h-4v4h4zm-4-8h4v-4h-4v4zm0-8h4v-4h-4v4zm0-12v4h4v-4h-4zm8-4h-4v4h4v-4zm0 12v-4h-4v4h4zm0 8v-4h-4v4h4z" fill-rule="evenodd" clip-rule="evenodd" fill="#25c7d8"/><path d="M14 52c-3.31 0-6 2.69-6 6s2.69 6 6 6 6-2.69 6-6-2.69-6-6-6zm0 8a2 2 0 1 1-.001-4.001A2 2 0 0 1 14 60zm24-8c-3.31 0-6 2.69-6 6s2.69 6 6 6 6-2.69 6-6-2.69-6-6-6zm0 8a2 2 0 1 1-.001-4.001A2 2 0 0 1 38 60zM62 0h-7.5a2 2 0 0 0-1.94 1.52L48.94 16H4a4.004 4.004 0 0 0-3.88 4.97l6 24A3.992 3.992 0 0 0 10 48h32c1.84 0 3.44-1.25 3.88-3.03L56.06 4H62c1.11 0 2-.89 2-2s-.89-2-2-2zM42 44H10L4 20h43.94L42 44z" fill-rule="evenodd" clip-rule="evenodd" fill="#fff"/></svg>