<svg xmlns="http://www.w3.org/2000/svg" viewBox="0 0 64 64"><path d="M64 32c0-4.42-3.58-8-8-8h-4.69l3.31-3.31a7.997 7.997 0 0 0 0-11.32 7.98 7.98 0 0 0-5.66-2.34c-2.05 0-4.1.78-5.66 2.34L40 12.69V8c0-4.42-3.58-8-8-8s-8 3.58-8 8v4.69l-3.31-3.32a7.98 7.98 0 0 0-5.66-2.34c-2.05 0-4.1.78-5.66 2.34a7.997 7.997 0 0 0 0 11.32L12.69 24H8c-4.42 0-8 3.58-8 8s3.58 8 8 8h4.69l-3.31 3.31a7.997 7.997 0 0 0 0 11.32 7.98 7.98 0 0 0 5.66 2.34c2.05 0 4.1-.78 5.66-2.34l3.3-3.32V56c0 4.42 3.58 8 8 8s8-3.58 8-8v-4.69l3.31 3.32a7.98 7.98 0 0 0 5.66 2.34c2.05 0 4.1-.78 5.66-2.34a7.997 7.997 0 0 0 0-11.32L51.31 40H56c4.42 0 8-3.58 8-8zm-16.38 6.47a3.99 3.99 0 0 0 .87 4.36l3.31 3.31a4.008 4.008 0 0 1 0 5.66c-.75.75-1.76 1.17-2.83 1.17s-2.07-.41-2.83-1.17l-3.31-3.32A3.99 3.99 0 0 0 40 47.31c-.52 0-1.04.1-1.53.3-1.5.62-2.47 2.08-2.47 3.7V56c0 2.21-1.79 4-4 4s-4-1.79-4-4v-4.69c0-1.62-.97-3.08-2.47-3.7a4.031 4.031 0 0 0-4.36.87l-3.31 3.32c-.75.75-1.76 1.17-2.83 1.17s-2.07-.41-2.83-1.17a4.008 4.008 0 0 1 0-5.66l3.31-3.31a4.005 4.005 0 0 0 .87-4.36A4.01 4.01 0 0 0 12.69 36H8c-2.21 0-4-1.79-4-4s1.79-4 4-4h4.69c1.62 0 3.08-.98 3.7-2.47.62-1.5.28-3.21-.87-4.36l-3.31-3.31a4.008 4.008 0 0 1 0-5.66c.75-.75 1.76-1.17 2.83-1.17s2.07.41 2.83 1.17l3.31 3.32a3.99 3.99 0 0 0 2.83 1.17c.52 0 1.04-.1 1.53-.3 1.5-.62 2.47-2.08 2.47-3.7V8c0-2.21 1.79-4 4-4s4 1.79 4 4v4.69c0 1.62.97 3.08 2.47 3.7a4.031 4.031 0 0 0 4.36-.87l3.31-3.32c.75-.75 1.76-1.17 2.83-1.17s2.07.41 2.83 1.17a4.008 4.008 0 0 1 0 5.66l-3.31 3.31a4.005 4.005 0 0 0-.87 4.36 4.013 4.013 0 0 0 3.7 2.47H56c2.21 0 4 1.79 4 4s-1.79 4-4 4h-4.69c-1.61 0-3.07.98-3.69 2.47z" fill="#fff"/><path d="M32 20c-6.62 0-12 5.38-12 12s5.38 12 12 12 12-5.38 12-12-5.38-12-12-12zm0 20c-4.42 0-8-3.58-8-8s3.58-8 8-8 8 3.58 8 8-3.58 8-8 8z" fill="#25c7d8"/></svg>